<?xml version="1.0" encoding="utf-8"?>
<!-- Generator: Adobe Illustrator 15.0.0, SVG Export Plug-In . SVG Version: 6.00 Build 0)  -->
<!DOCTYPE svg PUBLIC "-//W3C//DTD SVG 1.1//EN" "http://www.w3.org/Graphics/SVG/1.1/DTD/svg11.dtd">
<svg version="1.1" id="Layer_1" xmlns="http://www.w3.org/2000/svg" xmlns:xlink="http://www.w3.org/1999/xlink" x="0px" y="0px"
	 width="500px" height="500px" viewBox="0 0 500 500" enable-background="new 0 0 500 500" xml:space="preserve">
<path fill="#FFFFFF" d="M1.407,375.203c1.512-2.419,3.931-2.57,7.258-0.453c75.605,43.852,157.865,65.777,246.778,65.777
	c59.275,0,117.794-11.039,175.558-33.115c1.512-0.605,3.704-1.513,6.577-2.723s4.915-2.117,6.125-2.722
	c4.536-1.814,8.09-0.907,10.66,2.722s1.738,6.956-2.495,9.98c-5.443,3.932-12.399,8.468-20.867,13.609
	c-26.009,15.423-55.042,27.369-87.099,35.837S280.545,476.818,250,476.818c-47.178,0-91.786-8.241-133.823-24.724
	C74.14,435.613,36.488,412.401,3.222,382.462c-1.814-1.513-2.722-3.024-2.722-4.537C0.5,377.018,0.802,376.11,1.407,375.203z
	 M137.952,245.917c0-20.867,5.141-38.71,15.424-53.529c10.282-14.819,24.345-26.008,42.188-33.569
	c16.331-6.956,36.442-11.946,60.334-14.97c8.165-0.907,21.472-2.117,39.92-3.629v-7.712c0-19.355-2.117-32.359-6.351-39.013
	c-6.352-9.073-16.331-13.609-29.94-13.609h-3.629c-9.98,0.907-18.6,4.083-25.857,9.526c-7.258,5.443-11.946,13.004-14.063,22.682
	c-1.21,6.048-4.234,9.526-9.073,10.434l-52.168-6.351c-5.142-1.21-7.712-3.932-7.712-8.166c0-0.907,0.151-1.966,0.454-3.175
	c5.141-26.916,17.767-46.876,37.879-59.88c20.111-13.004,43.625-20.262,70.541-21.774h11.341c34.477,0,61.392,8.922,80.747,26.765
	c3.036,3.038,5.841,6.298,8.393,9.753c2.57,3.478,4.611,6.578,6.124,9.3c1.512,2.722,2.873,6.653,4.083,11.794
	c1.209,5.141,2.116,8.695,2.722,10.661c0.604,1.965,1.058,6.2,1.36,12.702s0.454,10.358,0.454,11.568v109.78
	c0,7.863,1.134,15.045,3.402,21.547c2.268,6.502,4.46,11.19,6.577,14.063c2.117,2.872,5.595,7.484,10.434,13.836
	c1.814,2.722,2.723,5.141,2.723,7.258c0,2.419-1.21,4.536-3.63,6.351c-25.102,21.774-38.71,33.569-40.827,35.384
	c-3.629,2.722-8.015,3.024-13.155,0.907c-4.234-3.629-7.938-7.106-11.114-10.434c-3.175-3.326-5.443-5.746-6.805-7.258
	c-1.36-1.512-3.554-4.461-6.577-8.847c-3.024-4.385-5.142-7.333-6.352-8.846c-16.936,18.448-33.568,29.94-49.899,34.477
	c-10.283,3.024-22.984,4.536-38.105,4.536c-23.287,0-42.415-7.182-57.385-21.547C145.437,292.565,137.952,272.228,137.952,245.917z
	 M215.978,236.845c0,11.794,2.948,21.245,8.846,28.352c5.897,7.107,13.836,10.661,23.815,10.661c0.908,0,2.193-0.151,3.856-0.454
	s2.797-0.453,3.402-0.453c12.701-3.327,22.53-11.492,29.486-24.497c3.326-5.746,5.821-12.021,7.484-18.826
	c1.663-6.805,2.571-12.324,2.723-16.558c0.15-4.234,0.227-11.19,0.227-20.867v-11.341c-17.541,0-30.848,1.209-39.92,3.629
	C229.283,194.051,215.978,210.836,215.978,236.845z M406.505,382.915c0.604-1.21,1.512-2.419,2.722-3.629
	c7.561-5.141,14.818-8.619,21.774-10.434c11.492-3.024,22.682-4.688,33.569-4.99c3.023-0.303,5.896-0.151,8.619,0.454
	c13.608,1.21,21.774,3.478,24.496,6.805c1.209,1.814,1.814,4.536,1.814,8.165v3.176c0,10.584-2.873,23.06-8.619,37.425
	s-13.761,25.933-24.043,34.703c-1.512,1.21-2.873,1.814-4.082,1.814c-0.605,0-1.21-0.151-1.814-0.453
	c-1.815-0.908-2.269-2.571-1.361-4.99c11.189-26.312,16.784-44.607,16.784-54.891c0-3.326-0.604-5.746-1.814-7.258
	c-3.024-3.629-11.492-5.443-25.403-5.443c-5.142,0-11.19,0.303-18.146,0.907c-7.561,0.907-14.517,1.814-20.867,2.722
	c-1.814,0-3.024-0.303-3.629-0.907c-0.605-0.604-0.757-1.21-0.454-1.814C406.051,383.974,406.202,383.52,406.505,382.915z"/>
</svg>
