<?xml version="1.0" encoding="utf-8"?>
<!-- Generator: Adobe Illustrator 15.0.0, SVG Export Plug-In . SVG Version: 6.00 Build 0)  -->
<!DOCTYPE svg PUBLIC "-//W3C//DTD SVG 1.1//EN" "http://www.w3.org/Graphics/SVG/1.1/DTD/svg11.dtd">
<svg version="1.1" xmlns="http://www.w3.org/2000/svg" xmlns:xlink="http://www.w3.org/1999/xlink" x="0px" y="0px" width="500px"
	 height="500px" viewBox="0 0 500 500" enable-background="new 0 0 500 500" xml:space="preserve">
<g id="Layer_1">
	<g>
		<rect x="0.5" y="2.076" fill="none" width="499" height="495.848"/>
		<g>
			<path fill="#FFFFFF" d="M465.367,2.082H298.504c-18.842,0-34.127,15.278-34.127,34.126v166.864
				c0,18.854,15.285,34.126,34.127,34.126h166.863c18.848,0,34.127-15.272,34.127-34.126V36.208
				C499.494,17.36,484.215,2.082,465.367,2.082z M417.516,153.908c-9.664,8.995-21.842,13.495-36.545,13.495
				c-14.039,0-25.719-4.5-35.07-13.495c-9.357-8.994-14.021-20.274-14.021-33.836c0-13.905,4.707-25.416,14.119-34.531
				c9.418-9.109,21.314-13.664,35.711-13.664c14.383,0,26.365,4.555,35.934,13.664c9.57,9.115,14.354,20.535,14.354,34.271
				C431.996,133.537,427.17,144.914,417.516,153.908z"/>
			<path fill="#FFFFFF" d="M382.24,84.543c-10.664,0-19.41,3.339-26.275,10.005c-6.859,6.665-10.295,15.176-10.295,25.524
				c0,10.053,3.449,18.4,10.326,25.065c6.883,6.666,15.496,9.999,25.84,9.999c10.385,0,19.064-3.399,26.008-10.192
				c6.951-6.805,10.422-15.272,10.422-25.404c0-9.865-3.471-18.164-10.422-24.902C400.9,87.912,392.359,84.543,382.24,84.543z"/>
		</g>
		<g>
			<path fill="#FFFFFF" d="M201.497,262.801H34.632c-18.854,0-34.126,15.285-34.126,34.133v166.857
				c0,18.854,15.273,34.133,34.126,34.133h166.864c18.842,0,34.125-15.279,34.125-34.133V296.934
				C235.622,278.086,220.338,262.801,201.497,262.801z M162.385,398.328c-2.4,5.691-5.824,10.693-10.27,15
				c-4.525,4.445-9.799,7.797-15.799,10.064c-3.51,1.379-6.727,2.293-9.666,2.766c-2.934,0.465-8.529,0.701-16.797,0.701
				c0,0-22.06-0.031-25.103,0c-2.776,0.029-4.36-2.316-4.36-4.24v-84.482c0-2.619,1.851-4.264,4.409-4.264h26.99
				c12.666,0,22.682,1.887,30.061,5.691c7.379,3.799,13.24,9.389,17.602,16.768c4.355,7.379,6.533,15.424,6.533,24.135
				C165.985,386.684,164.782,392.643,162.385,398.328z"/>
			<path fill="#FFFFFF" d="M142.049,355.262c-2.492-2.354-5.346-4.289-8.559-5.795c-3.229-1.512-6.289-2.51-9.17-3
				c-2.885-0.484-7.529-0.732-13.935-0.732h-16.67v69.264h17.075c6.665,0,11.836-0.467,15.526-1.373
				c3.689-0.914,6.77-2.068,9.23-3.467c2.469-1.402,4.725-3.121,6.77-5.166c6.58-6.664,9.865-15.084,9.865-25.264
				C152.182,369.736,148.807,361.582,142.049,355.262z"/>
		</g>
		<path fill="#FFFFFF" d="M465.367,262.809H298.504c-18.842,0-34.127,15.277-34.127,34.131v166.859
			c0,18.854,15.285,34.125,34.127,34.125h166.863c18.848,0,34.127-15.271,34.127-34.125V296.939
			C499.494,278.086,484.215,262.809,465.367,262.809z M403.043,426.908c-0.109,0-32.203-0.043-43.92-0.043
			c-2.244,0-4.217-1.84-4.217-4.246V338.07c0-2.201,1.73-4.203,4.217-4.203c11.492,0,42.51-0.037,42.613-0.037
			c3.283,0,5.951,2.662,5.951,5.947c0,3.277-2.668,5.945-5.951,5.945c-0.037,0-0.121,0.012-0.121,0.012h-33.371v28.398
			c0,0,32.125-0.029,32.232-0.029c3.297,0,5.959,2.672,5.959,5.963c0,3.248-2.602,5.879-5.824,5.953l-32.367,0.047v28.932
			c0,0,34.719-0.025,34.799-0.025c3.295,0,5.957,2.674,5.957,5.965C409,424.234,406.338,426.908,403.043,426.908z"/>
		<path fill="#FFFFFF" d="M201.497,2.082H34.632c-18.854,0-34.126,15.278-34.126,34.126v166.864
			c0,18.854,15.273,34.126,34.126,34.126h166.864c18.842,0,34.125-15.272,34.125-34.126V36.208
			C235.622,17.36,220.338,2.082,201.497,2.082z M153.325,161.379c-8.77,3.938-18.756,5.958-29.76,5.958
			c-10.396,0-19.222-2.087-26.462-6.261c-7.246-4.18-12.975-9.932-17.196-17.263c-4.228-7.337-6.333-15.272-6.333-23.802
			c0-13.555,4.833-24.956,14.493-34.198c9.672-9.242,21.587-13.864,35.758-13.864c8.674,0,18.207,1.996,28.58,6.019
			c1.797,0.702,4.059,3.218,4.059,5.886c0,3.478-2.818,6.297-6.297,6.297c-0.984,0-2.02-0.352-2.848-0.75
			c-7.773-3.255-15.297-4.785-22.828-4.785c-10.658,0-19.512,3.363-26.553,10.096c-7.047,6.731-10.567,15.164-10.567,25.301
			c0,10.217,3.466,18.618,10.397,25.193c6.926,6.58,15.793,9.871,26.596,9.871c8.195,0,16.246-1.827,24.17-5.492
			c0.006,0,1.658-0.526,2.553-0.526c3.514,0,6.375,2.861,6.375,6.375C157.461,157.974,155.883,160.417,153.325,161.379z"/>
	</g>
</g>
<g id="Layer_2" display="none">
	<path display="inline" fill="#FF0019" d="M239.549,307.203l-7.886-22.32v0.131L131.749,1.895h-18.429l98.237,278.366v-0.128
		l7.753,21.945c43.176,122.172,66.374,187.674,66.51,187.812c0.09,0.091,6.621,0.485,14.517,0.876
		c1.398,0.069,2.82,0.145,4.256,0.223C297.35,470.664,275.115,407.841,239.549,307.203z"/>
</g>
<g id="Layer_2_copy">
</g>
</svg>
