<?xml version="1.0" encoding="utf-8"?>
<!-- Generator: Adobe Illustrator 15.0.0, SVG Export Plug-In . SVG Version: 6.00 Build 0)  -->
<!DOCTYPE svg PUBLIC "-//W3C//DTD SVG 1.1//EN" "http://www.w3.org/Graphics/SVG/1.1/DTD/svg11.dtd">
<svg version="1.1" id="Layer_1" xmlns="http://www.w3.org/2000/svg" xmlns:xlink="http://www.w3.org/1999/xlink" x="0px" y="0px"
	 width="100%" height="100%" viewBox="0 0 180 180" enable-background="new 0 0 180 180" xml:space="preserve">
<path fill="#FFFFFF" d="M169.965,0H9.929C4.444,0,0,4.444,0,9.928v160.037c0,5.481,4.444,9.928,9.929,9.928h86.157v-69.664H72.643
	V83.079h23.443V63.058c0-23.235,14.191-35.887,34.919-35.887c9.928,0,18.462,0.739,20.948,1.069v24.282l-14.375,0.007
	c-11.273,0-13.455,5.356-13.455,13.217v17.333h26.885l-3.502,27.149h-23.383v69.664h45.842c5.481,0,9.928-4.446,9.928-9.928V9.928
	C179.893,4.444,175.446,0,169.965,0"/>
</svg>
