<?xml version="1.0" encoding="utf-8"?>
<!-- Generator: Adobe Illustrator 15.0.0, SVG Export Plug-In . SVG Version: 6.00 Build 0)  -->
<!DOCTYPE svg PUBLIC "-//W3C//DTD SVG 1.1//EN" "http://www.w3.org/Graphics/SVG/1.1/DTD/svg11.dtd">
<svg version="1.1" id="Layer_1" xmlns="http://www.w3.org/2000/svg" xmlns:xlink="http://www.w3.org/1999/xlink" x="0px" y="0px"
	 width="100%" height="100%" viewBox="0 0 180 180" enable-background="new 0 0 180 180" xml:space="preserve">
<g>
	<path opacity="0.3" fill="#FFFFFF" d="M170.014,179.946c5.484,0,9.933-4.447,9.933-9.933V9.881c0-5.488-4.448-9.935-9.933-9.935
		H9.88c-5.488,0-9.934,4.447-9.934,9.935v160.132c0,5.485,4.446,9.933,9.934,9.933H170.014z"/>
	<path fill="#FFFFFF" d="M124.144,179.946v-69.704h23.397l3.503-27.166h-26.9V65.732c0-7.866,2.183-13.225,13.463-13.225
		l14.386-0.007V28.204c-2.49-0.331-11.028-1.07-20.963-1.07c-20.741,0-34.938,12.66-34.938,35.909v20.034H72.633v27.166h23.458
		v69.704H124.144z"/>
</g>
</svg>
