<?xml version="1.0" encoding="utf-8"?>
<!-- Generator: Adobe Illustrator 15.0.0, SVG Export Plug-In . SVG Version: 6.00 Build 0)  -->
<!DOCTYPE svg PUBLIC "-//W3C//DTD SVG 1.1//EN" "http://www.w3.org/Graphics/SVG/1.1/DTD/svg11.dtd">
<svg version="1.1" id="Layer_1" xmlns="http://www.w3.org/2000/svg" xmlns:xlink="http://www.w3.org/1999/xlink" x="0px" y="0px"
	 width="500px" height="500px" viewBox="0 0 500 500" enable-background="new 0 0 500 500" xml:space="preserve">
<path fill="#FFFFFF" d="M249.966,6.844C112.278,6.755,0.588,118.303,0.5,255.99C0.431,363.439,69.211,458.843,171.174,492.733
	c12.465,2.284,17.037-5.194,17.037-11.947c0-6.751,0-21.658-0.156-42.433c-69.338,15.062-83.985-33.397-83.985-33.397
	C92.643,376.13,76.334,368.6,76.334,368.6c-22.646-15.582,1.714-15.168,1.714-15.168c24.931,1.768,38.071,25.71,38.071,25.71
	c22.23,38.124,58.327,27.112,72.714,20.777c1.069-12.614,6.592-24.435,15.583-33.345c-55.576-6.493-113.747-27.892-113.747-123.408
	c-0.351-24.776,8.857-48.734,25.71-66.898c-2.597-6.232-11.167-31.682,2.389-65.962c0,0,20.775-6.752,68.559,25.554
	c40.802-11.156,83.851-11.156,124.654,0c47.576-32.202,68.559-25.554,68.559-25.554c13.504,34.28,5.194,59.729,2.441,65.962
	c16.849,18.163,26.039,42.127,25.658,66.898c0,95.774-58.275,116.863-113.85,123.096c9.14,7.581,17.296,22.852,17.296,46.067
	c0,33.347-0.312,60.25-0.312,68.405c0,6.647,4.465,14.438,17.139,11.945c130.633-43.513,201.255-184.686,157.742-315.318
	C452.718,75.479,357.353,6.775,249.966,6.844z"/>
</svg>
