<?xml version="1.0" encoding="utf-8"?>
<!-- Generator: Adobe Illustrator 15.0.0, SVG Export Plug-In . SVG Version: 6.00 Build 0)  -->
<!DOCTYPE svg PUBLIC "-//W3C//DTD SVG 1.1//EN" "http://www.w3.org/Graphics/SVG/1.1/DTD/svg11.dtd">
<svg version="1.1" id="Layer_1" xmlns="http://www.w3.org/2000/svg" xmlns:xlink="http://www.w3.org/1999/xlink" x="0px" y="0px"
	 width="500px" height="500px" viewBox="0 0 500 500" enable-background="new 0 0 500 500" xml:space="preserve">
<g id="g10" transform="matrix(1.3333333,0,0,-1.3333333,0,671.78667)">
	<g id="g12" transform="scale(0.1)">
		<path id="path14" fill="#FFFFFF" d="M1875.008,5034.65c-508.206,0-571.934-2.153-771.519-11.261
			c-199.175-9.086-335.2-40.719-454.233-86.975c-123.047-47.82-227.402-111.804-331.436-215.834
			c-104.026-104.026-168.01-208.389-215.83-331.439c-46.26-119.03-77.886-255.055-86.982-454.226
			C5.903,3735.327,3.75,3671.599,3.75,3163.393c0-508.198,2.153-571.919,11.257-771.511c9.097-199.175,40.723-335.2,86.982-454.219
			c47.82-123.054,111.804-227.41,215.83-331.45c104.033-104.026,208.389-168.01,331.436-215.83
			c119.033-46.252,255.059-77.886,454.233-86.975c199.585-9.104,263.313-11.257,771.519-11.257
			c508.198,0,571.919,2.153,771.511,11.257c199.175,9.089,335.2,40.723,454.226,86.975
			c123.047,47.82,227.402,111.804,331.443,215.83c104.026,104.041,168.01,208.396,215.83,331.45
			c46.252,119.018,77.886,255.044,86.975,454.219c9.104,199.592,11.257,263.313,11.257,771.511
			c0,508.206-2.153,571.934-11.257,771.522c-9.089,199.171-40.723,335.197-86.975,454.226
			c-47.82,123.05-111.804,227.413-215.83,331.439c-104.041,104.03-208.396,168.014-331.443,215.834
			c-119.026,46.252-255.052,77.889-454.226,86.975c-199.592,9.104-263.313,11.257-771.511,11.257V5034.65z M1875.008,4697.487
			c499.636,0,558.823-1.908,756.145-10.909c182.439-8.32,281.521-38.808,347.461-64.431
			c87.341-33.948,149.678-74.495,215.156-139.973c65.486-65.482,106.033-127.819,139.98-215.164
			c25.627-65.94,56.111-165.022,64.431-347.465c9.001-197.318,10.913-256.501,10.913-756.152
			c0-499.636-1.912-558.823-10.913-756.138c-8.32-182.447-38.804-281.529-64.431-347.461
			c-33.948-87.349-74.495-149.685-139.98-215.163c-65.479-65.486-127.808-106.033-215.156-139.981
			c-65.94-25.627-165.022-56.111-347.461-64.424c-197.285-9.009-256.465-10.92-756.145-10.92c-499.688,0-558.86,1.912-756.152,10.92
			c-182.446,8.313-281.528,38.796-347.461,64.424c-87.349,33.948-149.685,74.495-215.164,139.981
			c-65.471,65.479-106.033,127.815-139.973,215.163c-25.627,65.933-56.111,165.015-64.431,347.461
			c-9.001,197.314-10.913,256.501-10.913,756.138c0,499.651,1.912,558.834,10.913,756.152
			c8.32,182.443,38.804,281.525,64.431,347.465c33.94,87.345,74.495,149.681,139.973,215.156
			c65.479,65.486,127.815,106.036,215.164,139.98c65.933,25.627,165.015,56.111,347.461,64.431
			C1316.17,4695.58,1375.357,4697.487,1875.008,4697.487"/>
		<path id="path16" fill="#FFFFFF" d="M1875.008,2539.648c-344.495,0-623.76,279.258-623.76,623.745
			c0,344.495,279.265,623.756,623.76,623.756c344.487,0,623.745-279.261,623.745-623.756
			C2498.753,2818.906,2219.495,2539.648,1875.008,2539.648z M1875.008,4124.309c-530.706,0-960.916-430.21-960.916-960.916
			c0-530.691,430.21-960.908,960.916-960.908c530.698,0,960.908,430.218,960.908,960.908
			C2835.916,3694.099,2405.706,4124.309,1875.008,4124.309"/>
		<path id="path18" fill="#FFFFFF" d="M3098.438,4162.277c0-124.021-100.54-224.55-224.561-224.55
			c-124.006,0-224.546,100.529-224.546,224.55c0,124.014,100.54,224.55,224.546,224.55
			C2997.898,4386.827,3098.438,4286.291,3098.438,4162.277"/>
	</g>
</g>
</svg>
