<?xml version="1.0" encoding="utf-8"?>
<!-- Generator: Adobe Illustrator 15.0.0, SVG Export Plug-In . SVG Version: 6.00 Build 0)  -->
<!DOCTYPE svg PUBLIC "-//W3C//DTD SVG 1.1//EN" "http://www.w3.org/Graphics/SVG/1.1/DTD/svg11.dtd">
<svg version="1.1" id="Layer_1" xmlns="http://www.w3.org/2000/svg" xmlns:xlink="http://www.w3.org/1999/xlink" x="0px" y="0px"
	 width="500px" height="500px" viewBox="0 0 500 500" enable-background="new 0 0 500 500" xml:space="preserve">
<path fill="#FFFFFF" d="M462.156,0.387H37.229C16.966,0.387,1,16.966,1,36.615v426.155c0,20.263,16.579,36.843,36.229,36.843
	h424.927c20.264,0,36.844-16.58,36.844-36.843V36.615C498.385,16.352,482.42,0.387,462.156,0.387z M148.987,425.311H74.073V187.059
	h74.914V425.311z M110.302,154.514c-23.334,0-42.983-19.649-42.37-42.983c0-23.334,19.65-42.983,42.984-42.37
	c23.334,0,42.983,19.65,42.37,42.983C153.286,135.479,134.25,154.514,110.302,154.514L110.302,154.514z M424.698,425.311h-73.072
	V309.255c0-27.633,0-62.634-38.687-62.634c-38.686,0-43.597,29.475-43.597,60.792v117.897H195.04V187.059h71.232v32.546h1.229
	c14.737-24.563,41.141-39.3,70.001-38.686c74.916,0,88.424,49.739,88.424,113.598L424.698,425.311L424.698,425.311z"/>
</svg>
