<?xml version="1.0" encoding="utf-8"?>
<!-- Generator: Adobe Illustrator 15.0.0, SVG Export Plug-In . SVG Version: 6.00 Build 0)  -->
<!DOCTYPE svg PUBLIC "-//W3C//DTD SVG 1.1//EN" "http://www.w3.org/Graphics/SVG/1.1/DTD/svg11.dtd">
<svg version="1.1" id="Layer_1" xmlns="http://www.w3.org/2000/svg" xmlns:xlink="http://www.w3.org/1999/xlink" x="0px" y="0px"
	 width="100%" height="100%" viewBox="0 0 157.68 157.348" enable-background="new 0 0 157.68 157.348"
	 xml:space="preserve">
<g>
	<path fill-rule="evenodd" clip-rule="evenodd" fill="#FFFFFF" d="M106.325,0c2.223,0,4.445,0,6.668,0c0,0.027,0,0.054,0,0.081
		c13.277,2.141,23.863,9.445,23.094,24.883c-0.703,14.115-11.136,21.697-24.802,23.501c0,3.294,0,19.922,0,19.922
		s12.126,10.819,16.02,14.474c-4.07,3.783-16.02,14.556-16.02,14.556s0,21.968,0,29.111c11.856-4.887,19.903-12.952,25.533-24.15
		c0.839-1.668,1.567-4.35,2.928-5.123c0,1.139,0,2.276,0,3.415c-2.102,33.029-19.6,54.447-53.994,56.678c-2.358,0-4.717,0-7.075,0
		c-34.547-3.353-56.008-21.601-60.744-54.238c0-3.496,0-6.993,0-10.489c3.97-27.733,24.565-44.779,50.498-51.312
		c0.785-0.198,2.27-0.625,2.439-0.163c0.206,0.561-3.147,2.149-3.497,2.358c-8.594,5.142-15.37,12.999-18.703,23.175
		c13.226-5.991,26.723-12.147,40.008-17.809c0,20.438,0,40.875,0,61.313c-9.211,3.827-18.294,8.217-27.404,11.873
		c0-19.896,0-39.792,0-59.687c-4.53,1.84-8.834,3.905-13.336,5.773c-2.677,7.931-3.324,20.324-1.708,29.274
		c3.333,18.455,15.742,29.711,34.722,32.445c9.666,1.393,20.944,0.163,29.03-2.846c0-7.594,0-29.6,0-29.6L93.884,82.78l16.101-14.23
		c0,0,0-16.646,0-20.085c-17.871-0.745-31.462-7.402-47.001-11.547c-6.835-1.823-17.412-5.073-24.151-1.138
		c-5.159,3.012-8.258,11.857-2.846,17.077c0.476,0.458,1.75,0.873,1.382,1.951c-10.442-2.448-18.855-11.882-15.856-26.103
		C23.816,17.772,32.484,9.951,43.548,7.156c11.726-2.962,25.676,1.026,35.617,4.716c5.204,1.932,10.516,3.827,16.345,5.448
		c5.013,1.394,13.13,3.324,17.89,0.488c3.672-2.188,5.891-8.161,2.765-12.522c-1.848-2.579-5.283-3.867-9.514-3.903
		c-0.382-0.003-3.801,0.595-3.984-0.082C102.331,0.069,105.409,0.411,106.325,0z"/>
</g>
</svg>
