<?xml version="1.0" encoding="utf-8"?>
<!-- Generator: Adobe Illustrator 15.0.0, SVG Export Plug-In . SVG Version: 6.00 Build 0)  -->
<!DOCTYPE svg PUBLIC "-//W3C//DTD SVG 1.1//EN" "http://www.w3.org/Graphics/SVG/1.1/DTD/svg11.dtd">
<svg version="1.1" id="Layer_1" xmlns="http://www.w3.org/2000/svg" xmlns:xlink="http://www.w3.org/1999/xlink" x="0px" y="0px"
	 width="500px" height="500px" viewBox="0 0 500 500" enable-background="new 0 0 500 500" xml:space="preserve">
<g>
	<path fill="#FFFFFF" d="M207.854,295.569c15.546-12.512,11.704-35.935-7.071-43.11c-6.978-2.662-7.936-2.662-15.95,0
		c-11.266,3.741-16.812,11.467-16.801,23.408c0.007,10.416,4.267,17.87,12.878,22.538
		C189.664,303.156,199.752,302.098,207.854,295.569z"/>
	<path fill="#FFFFFF" d="M298.911,339.356c-23.032,15.717-74.827,15.772-97.78,0.104c-3.399-2.32-7.673-4.215-9.499-4.215
		c-4.688,0-6.249,6.117-2.595,10.15c4.584,5.065,20.228,12.018,34.061,15.132c29.672,6.682,66.617,1.018,85.03-13.027
		c3.794-2.892,5.368-5.351,5.017-7.817C312.398,334.431,306.327,334.291,298.911,339.356z"/>
	<path fill="#FFFFFF" d="M362.794,26.96C316.353,3.604,260.834-5.073,210.7,3.193C87.882,23.442,0.5,125.998,0.5,249.894
		c0,80.455,36.959,153.961,101.169,201.21c39.575,29.129,80.551,43.766,135.742,48.504c10.499,0.905,35.28-0.669,52.624-3.331
		c88.169-13.55,165.194-77.019,194.535-160.286C527.309,214.705,475.702,83.747,362.794,26.96z M416.25,259.593
		c-2.148,7.44-4.633,11.412-10.986,17.563c-8.002,7.747-8.207,8.193-8.207,17.793c0,31.763-23.803,63.685-61.816,82.913
		c-12.217,6.18-24.656,10.499-41.833,14.525c-9.771,2.293-21.785,3.505-38.45,3.881c-25.502,0.571-26.857,0.467-46.811-3.525
		c-60.228-12.053-105.32-53.923-105.32-97.794c0-9.6-0.206-10.046-8.207-17.793c-6.354-6.151-8.838-10.123-10.987-17.563
		c-2.557-8.854-2.567-10.333-0.104-18.797c6.901-23.736,31.641-34.444,53.931-23.338l8.538,4.256l8.694-5.35
		c18.804-11.572,46.695-20.532,72.075-23.158c8.367-0.864,15.585-1.943,16.038-2.396c0.86-0.864,1.463-3.511,11.443-50.329
		c8.392-39.354,7.997-37.936,11.042-39.855c1.996-1.257,10.157-0.209,30.055,3.863c15.027,3.076,28.982,6.193,31.014,6.932
		c2.939,1.07,4.473,0.376,7.521-3.41c15.787-19.601,46.845-8.601,46.845,16.592c0,20.331-20.542,32.739-38.791,23.424
		c-7.604-3.881-11.325-8.625-12.76-16.263c-0.568-3.02-1.296-5.49-1.62-5.49c-0.327,0-11.179-2.257-24.115-5.016
		c-12.935-2.759-24.886-5.016-26.558-5.016c-2.414,0-3.418,2.142-4.884,10.45c-1.018,5.743-3.411,17.593-5.323,26.33
		s-4.486,20.942-5.723,27.129l-2.247,11.245l5.231,0.787c2.878,0.432,9.587,1.212,14.906,1.728
		c19.416,1.902,49.53,12.102,66.46,22.524l8.807,5.414l8.541-4.32c22.105-11.182,46.804-0.48,53.707,23.269
		C418.817,249.26,418.808,250.738,416.25,259.593z"/>
	<path fill="#FFFFFF" d="M315.05,252.459c-8.016-2.662-8.974-2.662-15.95,0c-12.76,4.877-19.337,17.535-15.843,30.508
		c1.888,7.016,6.35,12.06,14.331,16.212c6.781,3.525,13.038,3.295,21.029-0.78c8.883-4.535,13.227-11.928,13.233-22.531
		C331.861,263.926,326.315,256.2,315.05,252.459z"/>
</g>
</svg>
