<?xml version="1.0" encoding="utf-8"?>
<!-- Generator: Adobe Illustrator 15.0.0, SVG Export Plug-In . SVG Version: 6.00 Build 0)  -->
<!DOCTYPE svg PUBLIC "-//W3C//DTD SVG 1.1//EN" "http://www.w3.org/Graphics/SVG/1.1/DTD/svg11.dtd">
<svg version="1.1" id="Layer_1" xmlns="http://www.w3.org/2000/svg" xmlns:xlink="http://www.w3.org/1999/xlink" x="0px" y="0px"
	 width="100%" height="100%" viewBox="146.4 53.799 212.6 212.602" enable-background="new 146.4 53.799 212.6 212.602"
	 xml:space="preserve">
<g>
	<path fill="#FFFFFF" d="M295.3,118.799c-5.899,0-11.1,1.601-15.5,4.4c-5-17.3-20.1-27.1-43-27.1h-36.2v12.6h37.2
		C256.8,108.7,268,119,268,137s-11.2,28.299-30.2,28.299h-0.3l2.1-3.1c4.6-6.9,8.8-13.699,8.8-20.1c0-13.2-8.4-23.2-24.8-23.2
		c-14.2,0-24.9,10.899-24.9,23.7h13.5c0-6.4,4.2-11.1,11.4-11.1c7.7,0,11.3,4.5,11.3,11c0,5-3.2,10-6.7,15.1l-5.4,7.8h-22.2V178
		h13.6L190.5,212.7h56.8V200h-33.5l15.1-22.101h7.9c1.3,0,2.6,0,3.9-0.101l39.7,51.801h17.1l-13.1-17l24.899-36.4
		c6.4-9,13.9-18.8,13.9-30.1C323.1,131.2,311.7,118.799,295.3,118.799z M276,201.799l-20.5-26.5c7.5-2.399,13.6-6.399,18-11.899
		c4.9,6.2,12.6,10.101,21.9,10.101c0.1,0,0.6,0,0.699,0L276,201.799z M295.3,161c-8.6,0-14.2-6.5-14.2-14.801c0-0.699,0-1.3,0.101-2
		c0-0.1,0-0.199,0-0.4c1-7.1,6.3-12.399,14-12.399c8.6,0,14.2,6.5,14.2,14.8C309.5,154.5,303.9,161,295.3,161z"/>
	<path fill="#FFFFFF" d="M252.7,53.799c-58.6,0-106.3,47.701-106.3,106.301s47.7,106.301,106.3,106.301
		c58.6,0,106.3-47.701,106.3-106.4C359,101.4,311.3,53.799,252.7,53.799z M252.7,253.799c-51.7,0-93.7-42-93.7-93.699
		c0-51.7,42-93.7,93.7-93.7s93.7,42,93.7,93.7C346.4,211.7,304.4,253.799,252.7,253.799z"/>
</g>
</svg>
