<?xml version="1.0" encoding="utf-8"?>
<!-- Generator: Adobe Illustrator 15.0.0, SVG Export Plug-In . SVG Version: 6.00 Build 0)  -->
<!DOCTYPE svg PUBLIC "-//W3C//DTD SVG 1.1//EN" "http://www.w3.org/Graphics/SVG/1.1/DTD/svg11.dtd">
<svg version="1.1" xmlns="http://www.w3.org/2000/svg" xmlns:xlink="http://www.w3.org/1999/xlink" x="0px" y="0px" width="500px"
	 height="500px" viewBox="0 0 500 500" enable-background="new 0 0 500 500" xml:space="preserve">
<g id="Layer_1">
	<g id="Layer_2_1_">
		<g>
			
				<rect x="214.888" y="216.474" transform="matrix(-0.9482 0.3176 -0.3176 -0.9482 566.5626 408.4009)" fill="#FFFFFF" width="70.209" height="67.815"/>
			<g>
				
					<rect x="214.888" y="216.474" transform="matrix(-0.9482 0.3176 -0.3176 -0.9482 566.5626 408.4009)" fill="#FFFFFF" width="70.209" height="67.815"/>
				<path fill="#FFFFFF" d="M478.583,181.384C427.122,9.847,352.923-30.045,181.385,21.416
					C9.847,72.877-30.044,147.077,21.417,318.616c51.46,171.536,125.661,211.431,297.198,159.968
					C490.151,427.123,530.044,352.923,478.583,181.384z M392.018,292.686l-32.313,10.771l11.168,33.508
					c4.389,13.564-2.791,28.324-16.355,32.712c-2.792,0.8-5.983,1.598-8.777,1.197c-10.371-0.397-20.343-7.18-23.934-17.551
					l-11.171-33.513l-66.62,22.342l11.168,33.508c4.388,13.564-2.792,28.324-16.354,32.713c-2.794,0.799-5.982,1.597-8.776,1.196
					c-10.371-0.397-20.345-7.18-23.937-17.551l-11.17-33.512l-32.313,10.771c-2.791,0.8-5.982,1.597-8.776,1.199
					c-10.371-0.399-20.343-7.182-23.934-17.554c-4.389-13.564,2.791-28.324,16.355-32.712l32.313-10.771l-21.542-64.227
					l-32.313,10.771c-2.793,0.797-5.982,1.595-8.776,1.197c-10.371-0.4-20.345-7.181-23.936-17.554
					c-4.389-13.564,2.794-28.323,16.356-32.712l32.313-10.771l-11.169-33.51c-4.388-13.563,2.79-28.323,16.354-32.711
					c13.564-4.389,28.324,2.792,32.713,16.356l11.171,33.509l66.62-22.339l-11.17-33.51c-4.389-13.563,2.794-28.323,16.354-32.711
					c13.564-4.388,28.324,2.792,32.712,16.355l11.171,33.51l32.313-10.771c13.564-4.388,28.324,2.792,32.712,16.356
					c4.389,13.563-2.793,28.323-16.356,32.711l-32.313,10.771l21.542,64.229l32.313-10.772c13.563-4.388,28.322,2.793,32.711,16.355
					C412.761,273.538,405.58,288.298,392.018,292.686z"/>
			</g>
		</g>
	</g>
</g>
<g id="Layer_2" display="none">
	<path display="inline" fill="#FF0019" d="M239.549,307.203l-7.886-22.32v0.131L131.749,1.895h-18.429l98.237,278.366v-0.128
		l7.753,21.945c43.176,122.172,66.374,187.674,66.51,187.812c0.09,0.091,6.621,0.485,14.517,0.876
		c1.398,0.069,2.82,0.145,4.256,0.223C297.35,470.664,275.115,407.841,239.549,307.203z"/>
</g>
<g id="Layer_2_copy">
</g>
</svg>
