<?xml version="1.0" encoding="utf-8"?>
<!-- Generator: Adobe Illustrator 15.0.0, SVG Export Plug-In . SVG Version: 6.00 Build 0)  -->
<!DOCTYPE svg PUBLIC "-//W3C//DTD SVG 1.1//EN" "http://www.w3.org/Graphics/SVG/1.1/DTD/svg11.dtd">
<svg version="1.1" xmlns="http://www.w3.org/2000/svg" xmlns:xlink="http://www.w3.org/1999/xlink" x="0px" y="0px" width="500px"
	 height="500px" viewBox="0 0 500 500" enable-background="new 0 0 500 500" xml:space="preserve">
<g id="Layer_1">
	<g>
		<polygon fill="#FFFFFF" points="395.494,455.133 395.494,321.449 439.862,321.449 439.862,499.5 39.394,499.5 39.394,321.449 
			83.763,321.449 83.763,455.133 		"/>
		<path fill="#FFFFFF" d="M132.74,308.773l217.81,45.52l9.219-43.791l-217.807-45.52L132.74,308.773z M161.552,205.055
			l201.674,93.922l18.439-40.333l-201.674-94.5L161.552,205.055z M217.443,105.947L388.58,248.271l28.233-33.997L245.68,71.95
			L217.443,105.947z M328.076,0.5l-35.724,26.506l132.529,178.625l35.725-26.505L328.076,0.5z M128.133,410.188H350.55v-44.369
			H128.133V410.188z"/>
	</g>
</g>
<g id="Layer_2" display="none">
	<path display="inline" fill="#FF0019" d="M239.549,307.203l-7.886-22.32v0.131L131.749,1.895h-18.429l98.237,278.366v-0.128
		l7.753,21.945c43.176,122.172,66.374,187.674,66.51,187.812c0.09,0.091,6.621,0.485,14.517,0.876
		c1.398,0.069,2.82,0.145,4.256,0.223C297.35,470.664,275.115,407.841,239.549,307.203z"/>
</g>
<g id="Layer_2_copy">
</g>
</svg>
