<?xml version="1.0" encoding="utf-8"?>
<!-- Generator: Adobe Illustrator 15.0.0, SVG Export Plug-In . SVG Version: 6.00 Build 0)  -->
<!DOCTYPE svg PUBLIC "-//W3C//DTD SVG 1.1//EN" "http://www.w3.org/Graphics/SVG/1.1/DTD/svg11.dtd">
<svg version="1.1" id="Layer_1" xmlns="http://www.w3.org/2000/svg" xmlns:xlink="http://www.w3.org/1999/xlink" x="0px" y="0px"
	 width="500px" height="500px" viewBox="0 0 500 500" enable-background="new 0 0 500 500" xml:space="preserve">
<g id="Logo__x2014__FIXED">
	<g>
		<path fill="#FFFFFF" d="M157.992,451.248c186.789,0,288.998-154.897,288.998-288.997c0-4.358,0-8.715-0.198-13.073
			c19.808-14.262,37.041-32.287,50.708-52.689c-18.224,8.121-37.833,13.469-58.434,16.044
			c20.997-12.479,37.041-32.485,44.767-56.255c-19.61,11.687-41.399,20.006-64.574,24.562
			c-18.619-19.808-44.964-32.089-74.082-32.089c-56.056,0-101.614,45.558-101.614,101.615c0,7.923,0.99,15.648,2.575,23.175
			c-84.382-4.16-159.256-44.766-209.37-106.17C28.052,82.425,23.1,99.856,23.1,118.476c0,35.258,18.025,66.356,45.162,84.58
			c-16.639-0.594-32.287-5.15-45.954-12.677c0,0.396,0,0.792,0,1.387c0,49.124,35.06,90.324,81.41,99.634
			c-8.517,2.377-17.431,3.565-26.74,3.565c-6.537,0-12.875-0.594-19.016-1.782c12.875,40.408,50.51,69.724,94.88,70.516
			c-34.862,27.335-78.638,43.578-126.177,43.578c-8.121,0-16.242-0.396-24.166-1.387
			C47.266,434.412,100.747,451.248,157.992,451.248"/>
	</g>
</g>
</svg>
