<?xml version="1.0" encoding="utf-8"?>
<!-- Generator: Adobe Illustrator 15.0.0, SVG Export Plug-In . SVG Version: 6.00 Build 0)  -->
<!DOCTYPE svg PUBLIC "-//W3C//DTD SVG 1.1//EN" "http://www.w3.org/Graphics/SVG/1.1/DTD/svg11.dtd">
<svg version="1.1" xmlns="http://www.w3.org/2000/svg" xmlns:xlink="http://www.w3.org/1999/xlink" x="0px" y="0px" width="500px"
	 height="500px" viewBox="0 0 500 500" enable-background="new 0 0 500 500" xml:space="preserve">
<g id="Layer_1">
	<g>
		<path fill="#FFFFFF" d="M499.257,134.062c-2.226,48.549-36.145,115.063-101.757,199.487
			c-67.86,88.135-125.268,132.235-172.201,132.235c-29.086,0-53.699-26.838-73.817-80.537
			c-13.419-49.226-26.838-98.452-40.28-147.678c-14.925-53.674-30.929-80.538-48.08-80.538c-3.731,0-16.791,7.845-39.156,23.489
			L0.5,150.288c24.636-21.624,48.912-43.272,72.805-64.938c32.862-28.367,57.521-43.295,73.974-44.795
			c38.819-3.734,62.713,22.809,71.681,79.616c9.71,61.316,16.409,99.438,20.185,114.344c11.194,50.864,23.511,76.286,36.976,76.286
			c10.43,0,26.119-16.498,47.045-49.518c20.882-32.978,32.076-58.083,33.582-75.323c2.989-28.479-8.204-42.755-33.582-42.755
			c-11.958,0-24.275,2.768-36.931,8.182c24.523-80.31,71.367-119.309,140.53-117.081C478.037,35.807,502.224,69.057,499.257,134.062
			"/>
	</g>
</g>
<g id="Layer_2" display="none">
	<path display="inline" fill="#FF0019" d="M239.549,307.203l-7.886-22.32v0.131L131.749,1.895h-18.429l98.237,278.366v-0.128
		l7.753,21.945c43.176,122.172,66.374,187.674,66.51,187.812c0.09,0.091,6.621,0.485,14.517,0.876
		c1.398,0.069,2.82,0.145,4.256,0.223C297.35,470.664,275.115,407.841,239.549,307.203z"/>
</g>
<g id="Layer_2_copy">
</g>
</svg>
