<?xml version="1.0" encoding="utf-8"?>
<!-- Generator: Adobe Illustrator 15.0.0, SVG Export Plug-In . SVG Version: 6.00 Build 0)  -->
<!DOCTYPE svg PUBLIC "-//W3C//DTD SVG 1.1//EN" "http://www.w3.org/Graphics/SVG/1.1/DTD/svg11.dtd">
<svg version="1.1" id="Layer_1" xmlns="http://www.w3.org/2000/svg" xmlns:xlink="http://www.w3.org/1999/xlink" x="0px" y="0px"
	 width="500px" height="500px" viewBox="0 0 500 500" enable-background="new 0 0 500 500" xml:space="preserve">
<path fill="#FFFFFF" d="M499.5,114.315c0,1.799-0.566,3.424-1.662,4.916c-1.145,1.449-2.332,2.194-3.691,2.194
	c-10.924,1.052-19.925,4.564-26.858,10.577c-6.978,5.968-14.131,17.422-21.549,34.275l-113.23,255.16
	c-0.745,2.375-2.806,3.558-6.232,3.558c-2.679,0-4.739-1.183-6.23-3.558l-63.505-132.803L183.51,421.438
	c-1.491,2.375-3.553,3.558-6.232,3.558c-3.249,0-5.396-1.183-6.45-3.558L59.57,166.277c-6.935-15.843-14.263-26.903-21.987-33.178
	c-7.68-6.276-18.429-10.183-32.167-11.674c-1.185,0-2.325-0.615-3.336-1.888c-1.052-1.229-1.58-2.677-1.58-4.301
	c0-4.17,1.185-6.231,3.555-6.231c9.922,0,20.276,0.439,31.116,1.316c10.05,0.921,19.531,1.36,28.394,1.36
	c9.043,0,19.707-0.439,31.999-1.36c12.857-0.876,24.267-1.316,34.185-1.316c2.374,0,3.557,2.062,3.557,6.231
	c0,4.125-0.746,6.189-2.194,6.189c-9.918,0.746-17.731,3.292-23.436,7.547c-5.709,4.303-8.559,9.919-8.559,16.897
	c0,3.555,1.187,7.986,3.553,13.299l91.945,207.633l52.181-98.572l-48.627-101.952c-8.731-18.168-15.927-29.931-21.55-35.196
	c-5.614-5.225-14.126-8.471-25.54-9.656c-1.05,0-2.019-0.615-2.988-1.888c-0.959-1.229-1.444-2.677-1.444-4.301
	c0-4.17,1.007-6.231,3.116-6.231c9.917,0,19.004,0.439,27.297,1.316c7.989,0.921,16.505,1.36,25.544,1.36
	c8.868,0,18.253-0.439,28.176-1.36c10.226-0.876,20.276-1.316,30.194-1.316c2.37,0,3.558,2.062,3.558,6.231
	c0,4.125-0.703,6.189-2.194,6.189c-19.84,1.361-29.762,6.978-29.762,16.897c0,4.432,2.284,11.321,6.891,20.626l32.17,65.305
	l31.999-59.731c4.431-8.426,6.669-15.537,6.669-21.329c0-13.606-9.918-20.847-29.757-21.768c-1.802,0-2.679-2.063-2.679-6.189
	c0-1.491,0.44-2.897,1.319-4.213c0.917-1.361,1.8-2.019,2.675-2.019c7.109,0,15.845,0.439,26.203,1.316
	c9.917,0.921,18.079,1.36,24.442,1.36c4.564,0,11.323-0.395,20.192-1.14c11.232-1.01,20.666-1.537,28.218-1.537
	c1.758,0,2.631,1.755,2.631,5.311c0,4.74-1.621,7.11-4.869,7.11c-11.546,1.185-20.846,4.389-27.867,9.566
	c-7.023,5.18-15.801,16.942-26.289,35.286l-42.661,78.865l57.757,117.665l85.271-198.285c2.939-7.241,4.433-13.912,4.433-19.968
	c0-14.527-9.92-22.208-29.755-23.129c-1.8,0-2.673-2.063-2.673-6.189c0-4.17,1.312-6.231,3.99-6.231
	c7.239,0,15.846,0.439,25.763,1.316c9.172,0.921,16.896,1.36,23.084,1.36c6.539,0,14.091-0.439,22.645-1.36
	c8.911-0.876,16.896-1.316,24.011-1.316C498.445,109.005,499.5,110.76,499.5,114.315z"/>
</svg>
