<?xml version="1.0" encoding="utf-8"?>
<!-- Generator: Adobe Illustrator 15.0.0, SVG Export Plug-In . SVG Version: 6.00 Build 0)  -->
<!DOCTYPE svg PUBLIC "-//W3C//DTD SVG 1.1//EN" "http://www.w3.org/Graphics/SVG/1.1/DTD/svg11.dtd">
<svg version="1.1" id="Layer_1" xmlns="http://www.w3.org/2000/svg" xmlns:xlink="http://www.w3.org/1999/xlink" x="0px" y="0px"
	 width="500px" height="500px" viewBox="0 0 500 500" enable-background="new 0 0 500 500" xml:space="preserve">
<path fill="#FFFFFF" d="M489.3,129.31c-5.6-21.792-22.494-38.885-44.219-44.738C406.065,74.166,250,74.166,250,74.166
	s-156.065,0-195.081,10.405c-21.725,5.854-38.618,22.946-44.218,44.738C0.296,167.806,0.296,250,0.296,250s0,81.673,10.405,120.689
	c5.6,21.793,22.493,38.885,44.218,44.739C93.935,425.834,250,425.834,250,425.834s156.065,0,195.081-10.405
	c21.725-5.854,38.619-22.946,44.219-44.739C499.704,331.673,499.704,250,499.704,250S499.704,168.326,489.3,129.31z M199.019,323.87
	V176.129l130.054,74.391L199.019,323.87z"/>
</svg>
